<svg id="Capa_1" enable-background="new 0 0 504.273 504.273" height="512" viewBox="0 0 504.273 504.273" width="512" xmlns="http://www.w3.org/2000/svg"><g><path d="m295.119 387.746c0-1.963 0-70.915 0-70.915h-93.245v85.147h93.245z" fill="#fee8c8"/><path d="m409.82 386.946-30.4-32.16-17.5-17.06-5.554-10.946h-69.605l.688 10.946.851 6.94v10.08c0 10.04-4.07 19.12-10.64 25.69-6.58 6.57-15.66 10.64-25.7 10.64-20.07 0-36.34-16.26-36.34-36.33v-10.32l.309-6.473.31-.228v-10.945h-65.026l-9.213 10.946-17.5 17.06-30.4 32.16c-16.05 16.98-24.99 39.46-24.99 62.83v47.19h365.7v-47.19c0-23.37-8.94-45.849-24.99-62.83z" fill="#fdea84"/><g><path d="m150.053 386.946 30.4-32.16 17.5-17.06 9.213-10.946h-55.952l-9.214 10.946-17.5 17.06-30.4 32.16c-16.05 16.98-24.99 39.46-24.99 62.83v47.19h55.952v-47.19c.001-23.37 8.941-45.849 24.991-62.83z" fill="#fde044"/></g><g><g id="XMLID_319_"><g><path d="m434.81 449.776v8.18h-72.89-219.92-72.89v-8.18c0-14.25 3.32-28.17 9.56-40.71h.01 63.32 219.92 61.67l1.33-.65c6.45 12.71 9.89 26.86 9.89 41.36z" fill="#fde044"/></g></g></g><g><path d="m408.457 162.964v33.59c0 13.394-10.812 24.252-24.148 24.252h-9.293l-246.11-.247h-9.293c-13.337 0-24.148-10.812-24.148-24.148v-35.447c-.097-1.798-.113-13.574-.098-26.629.024-21.262 17.267-38.49 38.529-38.49h236.034c21.279 0 38.529 17.25 38.529 38.529v28.59z" fill="#6ef5c2"/></g><path d="m176.651 209.715c-2.524-3.815-3.998-8.387-3.998-13.304v-35.447c-.097-1.798-.113-13.574-.098-26.629.024-21.262 17.267-38.49 38.529-38.49h-77.19c-21.262 0-38.505 17.229-38.529 38.49-.015 13.055.001 24.831.098 26.629v35.447c0 13.337 10.812 24.148 24.148 24.148h9.293l47.746.048v-10.892z" fill="#05f2a7"/><g id="XMLID_310_"><g><path d="m373.51 170.436v90.74c0 4.94-.6 9.87-1.79 14.66-2.86 11.55-8.95 21.75-17.25 29.61-8.3 7.87-18.81 13.4-30.5 15.64l-1.65.32-3.6 3.99c-11.56 12.81-28.02 20.13-45.28 20.13h-41.96c-17.26 0-33.72-7.32-45.28-20.13l-3.6-3.99-1.65-.32c-23.39-4.47-42.03-22.14-47.75-45.25-1.19-4.79-1.79-9.72-1.79-14.66v-90.74c-.26-2.76 0-97.31 0-97.31h242.1z" fill="#fef1dc"/></g></g><path d="m257.14 325.396-3.6-3.99-1.65-.32c-23.39-4.47-42.03-22.14-47.75-45.25-1.19-4.79-1.79-9.72-1.79-14.66v-90.74c-.26-2.76 0-97.31 0-97.31h-70.94s-.26 94.55 0 97.31v90.74c0 4.94.6 9.87 1.79 14.66 5.72 23.11 24.36 40.78 47.75 45.25l1.65.32 3.6 3.99c11.56 12.81 28.02 20.13 45.28 20.13h41.96c4.929 0 9.787-.616 14.49-1.768-11.766-2.88-22.532-9.21-30.79-18.362z" fill="#f9e2c2"/><g><path d="m310.719 96.213v4.174c0 13.885 10.684 25.768 24.552 26.46.446.022.895.034 1.346.034 1.937 0 3.823-.212 5.642-.606-.087 1.094-.145 2.196-.145 3.312 0 23.564 19.887 42.484 43.793 40.89 20.534-1.369 37.058-18.177 38.119-38.73.301-5.829-.625-11.404-2.53-16.502 12.294-6.304 20.536-19.388 19.764-34.323-.898-17.367-14.271-31.81-31.506-34.133-4.513-.608-8.87-.338-12.973.6-2.468-22.504-21.532-40.016-44.694-40.016-7.17 0-13.947 1.679-19.961 4.665l-158.542.403c-6.209-3.238-13.267-5.068-20.754-5.068-23.162 0-42.226 17.512-44.694 40.016-4.103-.938-8.46-1.208-12.973-.6-17.234 2.323-30.608 16.766-31.506 34.133-.772 14.935 7.471 28.019 19.764 34.323-1.905 5.098-2.83 10.673-2.53 16.502 1.061 20.553 17.584 37.361 38.119 38.73 23.906 1.594 43.793-17.326 43.793-40.89 0-1.116-.057-2.218-.145-3.312 1.819.394 3.705.606 5.642.606.452 0 .9-.011 1.346-.034 13.868-.693 24.552-12.575 24.552-26.46v-4.174z" fill="#9df8d3"/></g><g fill="#6ef5c2"><path d="m432.191 60.957c.497-.114.998-.217 1.502-.31-.59-.761-1.211-1.496-1.858-2.208.139.833.263 1.671.356 2.518z"/><path d="m182.988 12.417-9.402.024c-6.208-3.238-13.267-5.068-20.754-5.068-23.162 0-42.226 17.512-44.694 40.016-4.103-.938-8.461-1.208-12.974-.6-17.234 2.323-30.606 16.766-31.504 34.132-.772 14.935 7.47 28.02 19.764 34.323-1.905 5.098-2.831 10.673-2.53 16.502 1.061 20.553 17.584 37.361 38.119 38.73 2.578.172 5.105.092 7.569-.194-5.981-6.749-9.789-15.456-10.28-24.968-.164-3.173.036-6.272.559-9.259.753-4.299-.944-8.604-4.336-11.35-8.7-7.043-14.089-18.011-13.458-30.216.898-17.366 14.269-31.807 31.502-34.132 1.168-.158 2.326-.256 3.471-.3 5.31-.202 9.913-3.618 11.626-8.649 5.491-16.123 19.884-28.122 37.322-30.152z"/></g><circle cx="251.96" cy="226.139" fill="#ea596c" r="38.183"/><g><path d="m333.06 235.186c11.58 11.85 11.35 30.84-.5 42.42-25.42 24.82-52.37 37.41-80.1 37.41s-54.68-12.59-80.1-37.41c-11.85-11.58-12.08-30.57-.5-42.42 11.57-11.86 30.57-12.08 42.42-.51 13.82 13.5 26.67 20.34 38.18 20.34s24.36-6.84 38.18-20.34c11.85-11.58 30.85-11.35 42.42.51z" fill="#f9f7f8"/></g><path d="m204.14 275.836c-1.19-4.79-1.79-9.72-1.79-14.66v-33.641c-10.446-3.286-22.319-.724-30.489 7.651-11.58 11.85-11.35 30.84.5 42.42 18.473 18.037 37.754 29.608 57.555 34.589-12.64-8.284-22.01-21.141-25.776-36.359z" fill="#efedef"/><g><path d="m252.46 292.516c-21.647 0-43.307-10.433-64.377-31.009-2.963-2.894-3.02-7.642-.126-10.606 2.894-2.963 7.643-3.021 10.606-.125 18.17 17.744 36.303 26.741 53.896 26.741s35.727-8.997 53.896-26.741c2.965-2.896 7.713-2.837 10.606.125 2.894 2.964 2.837 7.712-.126 10.606-21.068 20.576-42.727 31.009-64.375 31.009z" fill="#ea596c"/></g><path d="m202.349 254.336c-1.262-1.148-2.523-2.328-3.786-3.561-2.964-2.895-7.713-2.838-10.606.125-2.894 2.964-2.837 7.712.126 10.606 5.259 5.136 10.555 9.639 15.878 13.507-1.059-4.532-1.612-9.178-1.612-13.837z" fill="#e43e54"/><path d="m180.47 432.801h-38.471v-97.09c0-6.908 5.6-12.508 12.508-12.508h13.456c6.908 0 12.508 5.6 12.508 12.508v97.09z" fill="#84ace1"/><path d="m171.896 323.844c-1.238-.41-2.558-.641-3.934-.641h-13.456c-6.908 0-12.508 5.6-12.508 12.508v97.09h21.323v-97.09c.001-5.532 3.596-10.217 8.575-11.867z" fill="#558ed6"/><path d="m323.451 429.801h38.471v-94.09c0-6.908-5.6-12.508-12.508-12.508h-13.456c-6.908 0-12.508 5.6-12.508 12.508v94.09z" fill="#84ace1"/><g id="XMLID_313_"><g><path d="m142 418.796h219.92v77.98h-219.92z" fill="#558ed6"/></g></g><path d="m142 418.796h21.275v77.98h-21.275z" fill="#1471cb"/><path d="m309.868 457.787h-115.815c-3.512 0-6.358 2.847-6.358 6.358v32.819h128.531v-32.819c0-3.511-2.847-6.358-6.358-6.358z" fill="#84ace1"/><g><path d="m187.695 191.638c-4.143 0-7.5-3.358-7.5-7.5v-13.568c0-4.142 3.357-7.5 7.5-7.5s7.5 3.358 7.5 7.5v13.568c0 4.143-3.358 7.5-7.5 7.5z" fill="#7a6d79"/></g><g><path d="m316.226 191.638c-4.143 0-7.5-3.358-7.5-7.5v-13.568c0-4.142 3.357-7.5 7.5-7.5s7.5 3.358 7.5 7.5v13.568c0 4.143-3.357 7.5-7.5 7.5z" fill="#9b8e99"/></g><path d="m296.095 0h-88.27c-29.46 0-53.342 24.882-53.342 54.342v11.13 17.051h194.954v-17.051-11.13c0-29.46-23.882-54.342-53.342-54.342z" fill="#ea596c"/><path d="m211.249 54.342c0-29.46 23.882-54.342 53.342-54.342h-56.766c-29.46 0-53.342 24.882-53.342 54.342v11.13 17.051h56.766v-17.051z" fill="#e43e54"/><g><path d="m351.952 96.213h-198.983c-8.765 0-15.87-7.105-15.87-15.87 0-8.765 7.105-15.87 15.87-15.87h198.982c8.765 0 15.87 7.105 15.87 15.87.001 8.764-7.104 15.87-15.869 15.87z" fill="#e43e54"/></g><path d="m203.735 80.342c0-8.765 7.105-15.87 15.871-15.87h-66.637c-8.765 0-15.87 7.105-15.87 15.87 0 8.765 7.105 15.871 15.87 15.871h66.637c-8.765 0-15.871-7.106-15.871-15.871z" fill="#c93347"/><g><path d="m450.497 504.273h-396.721c-4.143 0-7.5-3.358-7.5-7.5s3.357-7.5 7.5-7.5h396.722c4.143 0 7.5 3.358 7.5 7.5s-3.358 7.5-7.501 7.5z" fill="#fde044"/></g><path d="m78.68 409.066h-.01c-6.24 12.54-9.56 26.46-9.56 40.71v8.18h55.952v-8.18c0-14.252 3.342-28.165 9.577-40.71z" fill="#fdd62f"/></g></svg>